<svg xmlns="http://www.w3.org/2000/svg" viewBox="0 0 78.04 77.12"><defs><style>.cls-1{fill:#4d4d4d;}</style></defs><g id="Capa_2" data-name="Capa 2"><g id="Capa_1-2" data-name="Capa 1"><path class="cls-1" d="M52.12,49.59a3.15,3.15,0,0,1-3.35-2.9,3.38,3.38,0,0,1,6.7,0,1.53,1.53,0,0,0,3.05,0,6.07,6.07,0,0,0-4.88-5.78v-.79a1.52,1.52,0,1,0-3,0v.79a6.07,6.07,0,0,0-4.88,5.78,6.19,6.19,0,0,0,6.4,6,2.93,2.93,0,1,1-3.35,2.9,1.53,1.53,0,0,0-3.05,0,6.07,6.07,0,0,0,4.88,5.78V62a1.52,1.52,0,0,0,3,0v-.66a6.07,6.07,0,0,0,4.88-5.78A6.19,6.19,0,0,0,52.12,49.59Z"/><path class="cls-1" d="M68.81,40.52a19.79,19.79,0,0,0-8.11-7.17,1.52,1.52,0,1,0-1.32,2.74,16.8,16.8,0,0,1,7.56,23,1.52,1.52,0,1,0,2.69,1.43,19.85,19.85,0,0,0-.82-20Z"/><path class="cls-1" d="M54.52,31.4h-.11a1.53,1.53,0,0,0,0,3.05h.1a1.53,1.53,0,0,0,0-3.05Z"/><path class="cls-1" d="M44.87,66.33a16.76,16.76,0,0,1-7.55-23,1.53,1.53,0,0,0-2.7-1.43,19.83,19.83,0,0,0,8.93,27.16,1.58,1.58,0,0,0,.66.15,1.52,1.52,0,0,0,.66-2.9Z"/><path class="cls-1" d="M49.84,68h-.09a1.53,1.53,0,0,0,0,3h.1a1.53,1.53,0,1,0,0-3Z"/><path class="cls-1" d="M59.05,26.24A6.75,6.75,0,0,0,58.37,25h4a7,7,0,0,0,0-14H50.13a6.92,6.92,0,0,0,1.24-4,7,7,0,0,0-7-7H7A7,7,0,0,0,7,14H19.22a7,7,0,0,0,0,7.93h-4a7,7,0,0,0-4.35,12.5,7,7,0,0,0,0,11,7,7,0,0,0,0,11,7,7,0,0,0,4.35,12.49h18A25.91,25.91,0,1,0,59.05,26.24ZM62.34,14a4,4,0,0,1,0,7.93H25A4,4,0,1,1,25,14ZM7,11A4,4,0,0,1,7,3.05H44.35a4,4,0,1,1,0,7.92Zm8.23,14H52.58a4,4,0,0,1,1.73.39c-.72-.06-1.45-.09-2.18-.09a25.86,25.86,0,0,0-18.34,7.62H15.24a4,4,0,0,1,0-7.92Zm0,11h16a25.89,25.89,0,0,0-3.92,7.93h-12a4,4,0,0,1,0-7.93Zm0,11H26.57a26,26,0,0,0-.09,7.92H15.24a4,4,0,0,1,0-7.92Zm0,18.9a4,4,0,0,1,0-7.93H27.1a25.84,25.84,0,0,0,3.66,7.93Zm36.89,8.23A22.87,22.87,0,1,1,75,51.21,22.9,22.9,0,0,1,52.13,74.08Z"/></g></g></svg>