<svg xmlns="http://www.w3.org/2000/svg" viewBox="0 0 68.73 68.71"><defs><style>.cls-1{fill:#4d4d4d;}</style></defs><g id="Capa_2" data-name="Capa 2"><g id="Capa_1-2" data-name="Capa 1"><path class="cls-1" d="M67,33.15c-1.49,0-3,0-4.46,0-.91,0-1.3-.29-1.3-1.25q0-9.07,0-18.15c0-1,.44-1.23,1.32-1.2,1.39,0,2.78,0,4.18,0,1.57,0,1.94-.38,1.95-2,0-2.65,0-5.29,0-7.93C68.72.25,68.48,0,66.1,0,55.53,0,5.94,0,2.14,0,.42,0,0,.41,0,2.15,0,5,0,7.82,0,10.65c0,1.31.53,2,1.9,1.91s2.69.06,4,0,1.55.4,1.54,1.57c0,5.09,0,10.18,0,15.27,0,3.76,0,3.76-3.8,3.76s-3.74,0-3.65,3.79c0,1.67.4,2.14,2,2.06,1.46-.06,1.76.54,1.75,1.86,0,8.4,0,16.8,0,25.2,0,2.41.24,2.66,2.62,2.66H62.28c2.47,0,2.7-.23,2.7-2.73q0-12.68,0-25.35c0-.86,0-1.59,1.22-1.62,2.44-.08,2.53-.24,2.53-2.73,0-.48,0-1,0-1.44A1.52,1.52,0,0,0,67,33.15Zm-62.61-23c-1.93,0-1.95,0-2-1.9,0-1.34.08-2.69,0-4S2.78,2.38,4.2,2.4c5,.08,45,0,60.06,0,2,0,2,0,2,2.09,0,1.34-.06,2.69,0,4s-.47,1.65-1.69,1.64c-5.23,0-10.47,0-15.7,0H4.41ZM59,22.84c0,3,0,6,0,9.06,0,.48.16,1.2-.67,1.14s-.53-.69-.54-1.14q0-9.06,0-18.12c0-.49-.16-1.2.67-1.15s.53.7.54,1.15C59.05,16.8,59,19.82,59,22.84Zm-25.2,5a1.47,1.47,0,0,0-1.62-1.61c-4.41-.08-4.31-.22-4.25,3.89,0,.72,0,1.44,0,2.16,0,.41-.14.79-.65.77s-.59-.4-.6-.81c0-1.39,0-2.79,0-4.18s-.57-1.85-1.82-1.84H19.26A1.58,1.58,0,0,0,17.44,28c0,1.24-.08,2.49,0,3.74,0,1-.36,1.47-1.43,1.45-3.34,0-2.79.17-2.81-2.74,0-5.28,0-10.56,0-15.85,0-2,0-2,2.08-2H34.4c6.53,0,13.06,0,19.59,0,1.29,0,1.63.41,1.62,1.66,0,5.76-.07,11.52,0,17.28,0,1.38-.47,1.7-1.75,1.69q-9.15-.07-18.3,0c-1.3,0-1.84-.36-1.73-1.71C33.93,30.26,33.86,29.05,33.84,27.85Zm-8.5-.11v5.42H23.72V27.74Zm-2.41,0v5.42H21.31V27.74Zm-2.46,0v5.42H18.85V27.74Zm-9.54-4.92q0,4.53,0,9.06c0,.49.16,1.2-.66,1.16s-.55-.68-.55-1.13q0-9.06,0-18.12c0-.49-.16-1.2.66-1.16s.55.68.55,1.13Q10.93,18.29,10.93,22.82ZM62.58,58.21c-.12,1.92,0,3.84,0,5.76,0,2.3,0,2.31-2.25,2.31H17c-3,0-6.06-.06-9.08,0-1.36,0-1.75-.46-1.7-1.75.09-2.11.11-4.23,0-6.33-.07-1.43.35-1.91,1.84-1.89,8.79.06,17.57,0,26.36,0s17.57,0,26.36,0C62.21,56.31,62.66,56.77,62.58,58.21Zm0-12.69c.08,1.31-.36,1.73-1.71,1.72-8.83-.05-43.88,0-52.57,0-2.09,0-2.09,0-2.09-2.16,0-1.49,0-3,0-4.46C6.12,39.42,6.53,39,7.74,39c2.83.06,38.07,0,52.86,0,1.94,0,1.94,0,1.95,1.88C62.55,42.45,62.48,44,62.57,45.52Zm0,5.77c-.12,3.27.28,2.83-2.87,2.84H8.16c-2,0-2,0-2-2,0-3.07-.26-2.69,2.69-2.69H34.52c8.73,0,17.47,0,26.2,0C62.2,49.4,62.63,49.84,62.58,51.29Zm2-14.71c-10.12,0-50.32,0-60.3,0-.57,0-1.62.4-1.62-.54,0-.77,1-.45,1.57-.46q30.15,0,60.3,0c.56,0,1.54-.34,1.56.47S65.12,36.58,64.58,36.58Z"/></g></g></svg>