<svg xmlns="http://www.w3.org/2000/svg" viewBox="0 0 87.98 60.84"><defs><style>.cls-1{fill:#4d4d4d;}</style></defs><g id="Capa_2" data-name="Capa 2"><g id="Capa_1-2" data-name="Capa 1"><path class="cls-1" d="M73.15,60.81a1.54,1.54,0,0,1-.64,0L40.32,52.27,18,58.89a1.32,1.32,0,0,1-.56,0,1.42,1.42,0,0,1-.55-.15,1.53,1.53,0,0,1-.81-1.07L16,57l-.2-.5A3.12,3.12,0,0,0,13,54.81l-.57,0a1.52,1.52,0,0,1-1.79-1L9.79,51a1.51,1.51,0,0,1,.28-1.39l.44-.54.07-.15a1.49,1.49,0,0,0,0-.81,1.43,1.43,0,0,0-.45-.67L10,47.35l-.67-.21a1.48,1.48,0,0,1-1-1L7.6,43.62l-3.68-1a1.51,1.51,0,0,1-1-2l.28-.73.09-1.26a3.38,3.38,0,0,0-2.2-2.81A1.54,1.54,0,0,1,.05,34l.82-3.06a1.48,1.48,0,0,1,1-1l.68-.24.41-.35a1.6,1.6,0,0,0,.28-.57,1.63,1.63,0,0,0,0-.62l-.17-.51-.5-.55a1.57,1.57,0,0,1-.32-1.38l1-3.58a1.5,1.5,0,0,1,1-1l.69-.24.41-.35a1.59,1.59,0,0,0,.32-1.2l-.18-.5-.49-.55a1.54,1.54,0,0,1-.32-1.38l.94-3.53a1.54,1.54,0,0,1,1-1l.7-.24.39-.36a1.39,1.39,0,0,0,.28-.57,1.44,1.44,0,0,0,0-.62L7.72,10l-.48-.55A1.5,1.5,0,0,1,6.92,8l.63-2.4a1.53,1.53,0,0,1,1.2-1.1h1.84a3.63,3.63,0,0,0,2-1.37l.54-1.13.12-.77A1.51,1.51,0,0,1,14.49,0a1.47,1.47,0,0,1,.69,0L44.9,7.91,69.63.58a1.51,1.51,0,0,1,1.91,1.16l.14.72.2.52a3.13,3.13,0,0,0,2.76,1.68l.56-.06.27-.06a1.52,1.52,0,0,1,1.82,1L78,7.83a1.54,1.54,0,0,1-.28,1.39l-.38.46-.06.15a1.35,1.35,0,0,0,.44,1.47l.13.09.56.18a1.5,1.5,0,0,1,1,1l1,3.38a1.4,1.4,0,0,1,0,.73l-.26.54,3.63,1a1.52,1.52,0,0,1,1,2l-.28.73-.09,1.26a3.43,3.43,0,0,0,1.12,2.16l1.08.66.29.09a1.51,1.51,0,0,1,1,1.83l-.66,2.45a1.5,1.5,0,0,1-1,1l-.58.2-.4.35a1.55,1.55,0,0,0-.28.56,1.76,1.76,0,0,0,0,.64l.18.5.41.47a1.55,1.55,0,0,1,.32,1.37l-1,3.66a1.53,1.53,0,0,1-1,1.05l-.59.2-.39.35a1.52,1.52,0,0,0-.28.57,1.45,1.45,0,0,0,0,.62l.18.51.4.47a1.48,1.48,0,0,1,.32,1.37l-1,3.71a1.48,1.48,0,0,1-1,1l-.58.21-.4.35a1.52,1.52,0,0,0-.28.57,1.64,1.64,0,0,0,0,.62l.18.52.4.45a1.54,1.54,0,0,1,.33,1.38l-.82,3.12a1.52,1.52,0,0,1-1.78,1.09l-1.56-.07a3.6,3.6,0,0,0-2,1.36l-.55,1.14-.12.79A1.51,1.51,0,0,1,73.15,60.81Zm-1.37-3.33.23-.61a6.45,6.45,0,0,1,5.63-3.65h.2l.27-1.09-.17-.26a4.61,4.61,0,0,1,1.67-6.3,1,1,0,0,1,.28-.12l.56-2.16L80.28,43a4.6,4.6,0,0,1-.47-3.5,4.53,4.53,0,0,1,2.13-2.79,1,1,0,0,1,.29-.13l.56-2.12a1.75,1.75,0,0,1-.18-.26,4.62,4.62,0,0,1-.48-3.49,4.69,4.69,0,0,1,2.15-2.81,1.47,1.47,0,0,1,.28-.12l.12-.44-.19-.09a6.48,6.48,0,0,1-3.09-6l.11-.62L15.89,3.36,15.68,4a6.49,6.49,0,0,1-4.45,3.51l-1.07.13L10,8l.1.1a1.25,1.25,0,0,1,.16.24,4.59,4.59,0,0,1-1.66,6.3,1.23,1.23,0,0,1-.26.12l-.14,0-.53,2,.1.11.17.24a4.61,4.61,0,0,1-1.67,6.3,1.23,1.23,0,0,1-.26.12l-.14,0-.53,2,.09.11a1.24,1.24,0,0,1,.17.23,4.57,4.57,0,0,1,.47,3.49A4.52,4.52,0,0,1,4,32.32a1.23,1.23,0,0,1-.26.12l-.14.05-.3,1.11.86.63a6.5,6.5,0,0,1,2.15,5.26l-.11.63ZM18.64,55.56l16.08-4.77L28,49l-.05,0a1.58,1.58,0,0,1-.53.28l-8.61,2.56-.3,0a1.5,1.5,0,0,1-1.57-1.08l-1.55-5.19-4.16-1.1.17.07a4.4,4.4,0,0,1,1.77,6,.94.94,0,0,1-.16.23l-.05.08.26.89h.39a6.17,6.17,0,0,1,4.87,3.28ZM72.06,52.8a1.36,1.36,0,0,1-.6,0L8.58,36.14A1.51,1.51,0,0,1,7.51,34.3L14.15,9.18A1.52,1.52,0,0,1,16,8.11L78.87,24.74A1.51,1.51,0,0,1,80,26.58L73.3,51.7A1.5,1.5,0,0,1,72.06,52.8Zm-1.29-3.34,5.87-22.2-6.36-1.67,0,.37L64.52,47.69l-.06.11Zm-51.42-.9,3.27-1-3.86-1ZM61.59,47v-.12l5.75-21.74.17-.32-41.61-11,0,.38L20.14,36l-.06.1ZM46.43,39.83a1.46,1.46,0,0,1-1.17-.39l-3.38-3.16-4.51,1a1.51,1.51,0,0,1-1.69-2.11l2-4.19-2.34-4a1.51,1.51,0,0,1,1.48-2.26l4.59.56,3.06-3.45a1.51,1.51,0,0,1,2.61.7l.88,4.54,4.23,1.85a1.51,1.51,0,0,1,.14,2.7l-4,2.24-.45,4.6A1.49,1.49,0,0,1,46.43,39.83Zm12.42-4.22a1.65,1.65,0,0,1-.38,0l-2.53-.67A1.5,1.5,0,1,1,56.7,32l2.55.66a1.51,1.51,0,0,1-.4,3ZM17.21,35.3v-.1L23,13.46l.16-.34-6.44-1.7-5.87,22.2Zm27.87-.16.23-2.34a1.47,1.47,0,0,1,.77-1.17l2.06-1.15L46,29.54a1.52,1.52,0,0,1-.88-1.1l-.45-2.3L43.09,27.9a1.5,1.5,0,0,1-1.31.49l-2.35-.29,1.2,2a1.5,1.5,0,0,1,.06,1.41l-1,2.13,2.32-.5a1.51,1.51,0,0,1,1.35.36Zm-14.7-7.06A1.18,1.18,0,0,1,30,28l-2.53-.67a1.51,1.51,0,1,1,.77-2.91l2.53.67a1.51,1.51,0,0,1-.4,3ZM77.05,16.41l0-.13.16-.23L76.7,14.2l-.24-.1a4.4,4.4,0,0,1-1.77-6l.15-.21-.08-.26h-.13a6.11,6.11,0,0,1-5.42-3.31L69,3.91,50.5,9.4l7.09,1.88L68.9,7.91a1.53,1.53,0,0,1,1.88,1l1.87,6.32Zm-7.81-2.06-.92-3.11L63.2,12.75Z"/></g></g></svg>