<svg xmlns="http://www.w3.org/2000/svg" viewBox="0 0 77.01 77.01"><defs><style>.cls-1{fill:#4d4d4d;}</style></defs><g id="Capa_2" data-name="Capa 2"><g id="Capa_1-2" data-name="Capa 1"><path class="cls-1" d="M38.51,0H21.82a1.28,1.28,0,0,0-1.28,1.28v9H1.28A1.28,1.28,0,0,0,0,11.55V75.73A1.28,1.28,0,0,0,1.28,77H38.51a1.28,1.28,0,0,0,1.28-1.28V1.28A1.28,1.28,0,0,0,38.51,0ZM37.22,66.74H23.1V64.18H37.22ZM2.57,19.25h18V57.76h-18Zm34.65-5.13H23.1V10.27H37.22ZM2.57,60.33h18v3.85h-18ZM23.1,61.61V16.69H37.22V61.61Zm14.12-59V7.7H23.1V2.57ZM20.54,12.84v3.85h-18V12.84Zm-18,53.9h18v7.71h-18ZM23.1,74.45V69.31H37.22v5.14Z"/><path class="cls-1" d="M77,70.27l-15.4-59a1.29,1.29,0,0,0-.6-.79,1.26,1.26,0,0,0-1-.13L40.74,15.45A1.28,1.28,0,0,0,39.83,17l15.4,59a1.29,1.29,0,0,0,.6.79,1.34,1.34,0,0,0,1,.13l19.25-5.14A1.28,1.28,0,0,0,77,70.27ZM62.71,25.77l7.44,28.55L53.38,58.8,45.94,30.24Zm-3.3-12.65,1.4,5.36L44,23,42.64,17.6Z"/><path class="cls-1" d="M15.4,33.37H7.7v-7.7h7.7Z"/></g></g></svg>