<svg xmlns="http://www.w3.org/2000/svg" viewBox="0 0 60.97 54.55"><defs><style>.cls-1{fill:#4d4d4d;}</style></defs><g id="Capa_2" data-name="Capa 2"><g id="Capa_1-2" data-name="Capa 1"><path class="cls-1" d="M56.15,0H4.81A4.81,4.81,0,0,0,0,4.81V43.32a4.81,4.81,0,0,0,4.81,4.81H27.28V53A1.6,1.6,0,0,0,30,54.08L36,48.13H56.15A4.81,4.81,0,0,0,61,43.32V4.81A4.81,4.81,0,0,0,56.15,0Zm1.61,43.32a1.6,1.6,0,0,1-1.61,1.6H35.3a1.61,1.61,0,0,0-1.14.47l-3.68,3.68V46.53a1.6,1.6,0,0,0-1.6-1.61H4.81a1.6,1.6,0,0,1-1.6-1.6V4.81a1.6,1.6,0,0,1,1.6-1.6H56.15a1.61,1.61,0,0,1,1.61,1.6Z"/><rect class="cls-1" x="8.02" y="12.84" width="17.65" height="3.21"/><rect class="cls-1" x="8.02" y="22.46" width="44.92" height="3.21"/><rect class="cls-1" x="8.02" y="32.09" width="44.92" height="3.21"/><rect class="cls-1" x="49.74" y="12.84" width="3.21" height="3.21"/><rect class="cls-1" x="43.32" y="12.84" width="3.21" height="3.21"/></g></g></svg>