<svg xmlns="http://www.w3.org/2000/svg" viewBox="0 0 80.53 80.55"><defs><style>.cls-1{fill:#4d4d4d;}</style></defs><g id="Capa_2" data-name="Capa 2"><g id="Capa_1-2" data-name="Capa 1"><path class="cls-1" d="M0,50.27c0-5.33.08-10.66,0-16a7.28,7.28,0,0,1,2.79-6,24.69,24.69,0,0,1,8.75-4.42A1.76,1.76,0,0,1,14,24.93a1.81,1.81,0,0,1-1.35,2.43A31.28,31.28,0,0,0,7,29.81c-1.51.92-3.29,1.83-3.26,3.87s1.77,3,3.32,3.84a27,27,0,0,0,4.9,2c.91.31,1.28,0,1.27-.89,0-.73,0-1.46,0-2.19.07-1.19.46-2.24,1.87-2.26s1.85,1,1.92,2.2a19.76,19.76,0,0,1,0,3c-.12,1.31.62,1.7,1.72,1.91,3.8.72,7.62,1.27,11.46,1.61a113.62,113.62,0,0,0,30.86-1.55c2.29-.42,2.29-.42,2.3-2.8,0-1.1,0-2.2,0-3.29s.61-2,1.93-2,1.73.9,1.82,2,0,2.29,0,3.44c0,.76.21,1.23,1.13.93A21.31,21.31,0,0,0,75,36.51c2.39-1.85,2.4-3.77,0-5.65a21.11,21.11,0,0,0-5.66-3,10.55,10.55,0,0,1-1.58-.67A1.66,1.66,0,0,1,67,25.09a1.67,1.67,0,0,1,2.12-1.17c3.78,1.17,7.38,2.69,10,5.82a5.84,5.84,0,0,1,1.39,3.9q0,16.61,0,33.21a6.5,6.5,0,0,1-2.07,4.74c-2.47,2.47-5.61,3.8-8.83,4.89A84.09,84.09,0,0,1,50,80.17a115.54,115.54,0,0,1-15.34.23c-9-.42-18-1.5-26.48-5a17.43,17.43,0,0,1-6.28-4A6.47,6.47,0,0,1,0,66.72C.06,61.24,0,55.75,0,50.27ZM76.87,39.82a30,30,0,0,1-6.51,3.06,89,89,0,0,1-17.93,3.5,113.29,113.29,0,0,1-29.32-.62C16.44,44.81,9.85,43.52,3.92,40a2.71,2.71,0,0,0-.23,1.74c0,7.16.31,14.33-.12,21.46-.28,4.66,1.64,7.16,5.67,8.64a7.4,7.4,0,0,1,1,.44,1.93,1.93,0,0,0,2.61-.48c3-3.1,6.12-6.14,9.2-9.19,2.49-2.45,4.88-2.5,7.42-.13,1.91,1.78,3.82,3.57,5.67,5.4,1,1,1.65.92,2.58-.09,2.88-3.1,5.85-6.12,8.79-9.16,2.24-2.32,4.58-2.46,7.06-.44.44.36.87.74,1.3,1.12,3.92,3.45,7.81,6.93,11.75,10.36,3.59,3.14,4.23,3.13,8.16.25a4.7,4.7,0,0,0,2.12-4.1c-.08-6,0-11.91,0-17.86Z"/><path class="cls-1" d="M60.45,20.25c0,2.14,0,4.28,0,6.42,0,2.34-1.27,3.6-3.57,3.64-1.57,0-3.14,0-4.7,0a3.46,3.46,0,0,1-3.75-3.56q-.13-6.57,0-13.16A3.46,3.46,0,0,1,52.18,10c1.56,0,3.13,0,4.7,0,2.3,0,3.54,1.3,3.57,3.63S60.45,18.06,60.45,20.25Zm-3.65,0h0c0-1.2,0-2.4,0-3.6,0-3.25.5-3-3-3-1.17,0-1.58.41-1.56,1.56.06,2.76,0,5.53,0,8.3,0,3.42,0,3.39,3.37,3.16.87-.06,1.22-.38,1.21-1.24C56.78,23.72,56.8,22,56.8,20.27Z"/><path class="cls-1" d="M33.34,20c0-2,0-4,0-5.94.06-2.69,1.42-4,4.08-4h5.79c1.18,0,2.11.38,2.14,1.72s-.9,1.89-2.16,1.91c-1.51,0-3,.06-4.53,0-1.06,0-1.59.34-1.49,1.43a.85.85,0,0,1,0,.16c-.09,3-.09,3,2.92,3a12.91,12.91,0,0,1,2.33.11,3.38,3.38,0,0,1,3,3.49c0,1.72,0,3.44,0,5.16a3.21,3.21,0,0,1-3.27,3.28c-1.62.06-3.24,0-4.85,0a3.54,3.54,0,0,1-3.9-3.73c-.08-2.18,0-4.38,0-6.57Zm6.09,6.66c2.32,0,2.32,0,2.33-2.11,0-2.46,0-2.46-2.15-2.47-2.42,0-2.42,0-2.43,2.21C37.18,26.67,37.18,26.67,39.43,26.67Z"/><path class="cls-1" d="M30.36,16c0,3.49,0,7,0,10.45,0,2.62-1.22,3.83-3.82,3.86-1.46,0-2.93,0-4.39,0-1.14,0-2-.46-2-1.7s.79-1.87,2-1.92,2.3,0,3.45,0c.79,0,1.07-.36,1.14-1.14.29-3.34.25-3.41-3.1-3.42-.42,0-.84,0-1.25,0-1.19-.1-2.21-.47-2.23-1.89s1-1.86,2.17-1.94a26.75,26.75,0,0,1,3,0c1.11.06,1.45-.43,1.44-1.49,0-3.57.24-3-3-3.07a12.27,12.27,0,0,1-2.19-.11,1.68,1.68,0,0,1-1.43-1.93,1.58,1.58,0,0,1,1.63-1.58c1.93,0,3.87-.09,5.79,0A3.07,3.07,0,0,1,30.32,13c.08,1,0,2,0,3Z"/><path class="cls-1" d="M68.66,10.25a5.19,5.19,0,0,1-5.19-5.16,5.21,5.21,0,0,1,10.42.07A5.16,5.16,0,0,1,68.66,10.25Z"/><path class="cls-1" d="M30.14,55.19a5.12,5.12,0,1,1,5,5.22A5,5,0,0,1,30.14,55.19Z"/></g></g></svg>