<svg xmlns="http://www.w3.org/2000/svg" viewBox="0 0 45.84 45.98"><g id="Capa_2" data-name="Capa 2"><g id="Capa_1-2" data-name="Capa 1"><path d="M25.59,36.93c0-2.67,0-5.33,0-8,0-.87.29-1.16,1.14-1.12,1.18.05,2.38,0,3.56,0,.59,0,.89-.2,1-.78.19-1.49.37-3,.58-4.46.1-.75-.2-1-.94-1-1.42,0-2.85,0-4.28,0-.71,0-1-.22-1-1,0-1.14,0-2.28,0-3.41.08-2.15,1-3,3.11-3.08.9,0,1.79,0,2.68,0,.58,0,.79-.22.78-.79,0-1.35,0-2.7,0-4,0-.45-.13-.78-.63-.79a31.73,31.73,0,0,0-5.6-.07,7.44,7.44,0,0,0-6.67,7.7c0,1.32,0,2.64,0,4,0,1.5,0,1.5-1.53,1.5-1.07,0-2.14,0-3.21,0-.58,0-.8.21-.79.79q0,2.34,0,4.68c0,.54.22.74.75.74,1.27,0,2.55,0,3.83,0,.67,0,1,.21,1,.93q0,8.13,0,16.27c0,1.06-.62.8-1.18.68A22.52,22.52,0,0,1,6.85,39.56,22.42,22.42,0,0,1,.11,25.35,22.43,22.43,0,0,1,5.41,8.24,22.08,22.08,0,0,1,23.55,0a22.83,22.83,0,0,1,22.1,20A22.94,22.94,0,0,1,27.14,45.82c-.17,0-.35,0-.52.09-.77.2-1.06,0-1.05-.89C25.61,42.33,25.59,39.63,25.59,36.93Z"/></g></g></svg>