<svg xmlns="http://www.w3.org/2000/svg" viewBox="0 0 45.88 46.2"><g id="Capa_2" data-name="Capa 2"><g id="Capa_1-2" data-name="Capa 1"><path d="M23,46.2C10.37,46.38,0,35.69,0,23.06A23.23,23.23,0,0,1,23,0a23.2,23.2,0,0,1,22.9,23.22C45.83,35.78,35.46,46.37,23,46.2ZM36,23.12c-.11-2.15.07-4.31-.18-6.46-.43-3.69-2.74-6.14-6.4-6.44a80.46,80.46,0,0,0-13.08,0,6.64,6.64,0,0,0-6.13,6.2,81.69,81.69,0,0,0,0,13.18A6.62,6.62,0,0,0,16.47,36a81.65,81.65,0,0,0,13,0,6.79,6.79,0,0,0,6.31-6.34C36,27.48,35.85,25.3,36,23.12Z"/><path d="M12.06,23.16c-.07-2,0-3.95.13-5.9a4.94,4.94,0,0,1,5-5,106.5,106.5,0,0,1,11.58,0,5,5,0,0,1,5,5.06q.28,5.74,0,11.49A5,5,0,0,1,28.6,34q-5.66.27-11.31,0a5,5,0,0,1-5.1-5C12.09,27,12,25.05,12.06,23.16ZM23,29.76a6.64,6.64,0,1,0-6.61-6.63A6.53,6.53,0,0,0,23,29.76ZM31.42,16.1A1.61,1.61,0,0,0,30,14.58,1.49,1.49,0,0,0,28.52,16a1.36,1.36,0,0,0,1.34,1.47A1.51,1.51,0,0,0,31.42,16.1Z"/><path d="M22.94,27.65a4.53,4.53,0,1,1,4.49-4.53A4.56,4.56,0,0,1,22.94,27.65Z"/></g></g></svg>