<svg xmlns="http://www.w3.org/2000/svg" viewBox="0 0 45.88 46.2"><g id="Capa_2" data-name="Capa 2"><g id="Capa_1-2" data-name="Capa 1"><path d="M23,46.2C10.36,46.38,0,35.69,0,23.06A23.23,23.23,0,0,1,23,0a23.2,23.2,0,0,1,22.9,23.22C45.83,35.79,35.46,46.37,23,46.2Zm2.12-25.86a1.34,1.34,0,0,1-.21-1.08c.09-.84-.19-1.2-1.08-1.14s-2,0-3,0c-1.2,0-1.19,0-1.2,1.19,0,4.91.1,9.83-.09,14.74,0,.59.26.71.75.7,1.19,0,2.38-.05,3.57,0,.89.05,1.1-.31,1.09-1.14-.05-2.79,0-5.58,0-8.36A3.17,3.17,0,0,1,27.55,22c1.95-.22,3.24,1,3.29,3.1.05,2.31,0,4.61,0,6.92,0,.86-.37,1.94.18,2.52s1.69.21,2.57.22c2.65,0,2.68,0,2.64-2.67a79.71,79.71,0,0,0-.17-8.88,6,6,0,0,0-7.54-5.31A5.9,5.9,0,0,0,25.07,20.34Zm-8.91,6.13c0-2.48,0-5,0-7.45,0-.65-.22-.91-.88-.89-1.19,0-2.38,0-3.56,0-.59,0-.87.15-.87.8q0,7.5,0,15c0,.61.2.86.82.85,1.16,0,2.32-.05,3.48,0,.78,0,1-.26,1-1C16.13,31.32,16.16,28.9,16.16,26.47Zm-2.62-10.9a2.64,2.64,0,0,0,3-2.71,2.69,2.69,0,0,0-3-2.82,2.79,2.79,0,0,0-3,2.82A2.73,2.73,0,0,0,13.54,15.57Z"/></g></g></svg>