<svg xmlns="http://www.w3.org/2000/svg" viewBox="0 0 44.19 31.39"><defs><style>.cls-1{fill:#1c3180;}</style></defs><g id="Capa_2" data-name="Capa 2"><g id="Capa_1-2" data-name="Capa 1"><path class="cls-1" d="M22.12,0H39.93c.65,0,1.54-.2,1.8.45s-.64.92-1,1.33Q33.06,9.52,25.4,17.18c-2.22,2.23-4.37,2.24-6.57,0Q10.93,9.29,3.05,1.35C2.8,1.09,2.24.88,2.46.43S3.2,0,3.63,0H22.12Z"/><path class="cls-1" d="M22.1,31.37H4.21c-.62,0-1.47.17-1.73-.43s.57-.89,1-1.27C7.26,25.8,11.12,22,14.93,18.08c.57-.57.93-.59,1.43,0a18.62,18.62,0,0,0,1.4,1.41,6.28,6.28,0,0,0,8.67,0,13,13,0,0,0,1.34-1.34c.54-.67.92-.68,1.55,0,3.93,4,7.91,8,11.87,12,.11.1.2.21.31.3.49.44.36.71-.22.88a4.85,4.85,0,0,1-1.37.11Z"/><path class="cls-1" d="M0,15.61V4.08C0,3.5-.1,2.73.43,2.49s.87.51,1.23.87c3.85,3.85,7.68,7.72,11.55,11.55.62.62.62,1,0,1.58-4,3.93-7.89,7.9-11.84,11.85-.27.26-.49.8-.94.58S0,28.19,0,27.75C0,24.4,0,21,0,17.69Z"/><path class="cls-1" d="M44.19,15.72v11c0,.32,0,.64,0,1s0,1-.43,1.24-.7-.39-1-.67C38.83,24.33,34.92,20.38,31,16.47c-.58-.57-.64-.91,0-1.52,4-4,8-8,12-12,.21-.21.41-.59.75-.48s.38.56.42.89a8.48,8.48,0,0,1,0,1.13Z"/></g></g></svg>