<svg xmlns="http://www.w3.org/2000/svg" viewBox="0 0 39.01 39.34"><defs><style>.cls-1{fill:#1c3180;}</style></defs><g id="Capa_2" data-name="Capa 2"><g id="Capa_1-2" data-name="Capa 1"><path class="cls-1" d="M30.12,39.34a15.92,15.92,0,0,1-7.37-2.12A49.29,49.29,0,0,1,2.14,16.42,16.51,16.51,0,0,1,0,8.61,5.68,5.68,0,0,1,1.75,4.35c1.07-1,2.07-2.09,3.12-3.13a3.92,3.92,0,0,1,5.66,0C12.33,3,14.1,4.73,15.85,6.55a3.72,3.72,0,0,1-1.19,6.09c-2.49,1.11-3.17,2.83-2.11,5.38a16.84,16.84,0,0,0,5,6.42,13.14,13.14,0,0,0,3.76,2.28,3.67,3.67,0,0,0,5.08-2.18,3.63,3.63,0,0,1,5.9-1.35C34.29,25,36.17,27,38,28.92a3.83,3.83,0,0,1-.09,5.23Q36,36.19,34,38.09A5.15,5.15,0,0,1,30.12,39.34Z"/></g></g></svg>