<svg xmlns="http://www.w3.org/2000/svg" viewBox="0 0 45.87 46.21"><g id="Capa_2" data-name="Capa 2"><g id="Capa_1-2" data-name="Capa 1"><path d="M23,46.2C10.39,46.39,0,35.73,0,23.18A23.22,23.22,0,0,1,23,0a23.1,23.1,0,0,1,0,46.2Zm-9.3-25.31a2.87,2.87,0,0,1-1.45-.24c-.55-.19-.71,0-.58.54A5.24,5.24,0,0,0,14.71,25c.25.12.59.09.75.47a1.66,1.66,0,0,1-1.19.19c-.73,0-.73.27-.42.8A5,5,0,0,0,17.37,29c.22,0,.55,0,.62.25s-.28.42-.48.56a9.33,9.33,0,0,1-1.73.94,14.61,14.61,0,0,1-4.72.92c4.62,2.43,9.14,2.75,13.61.66,5.49-2.57,8.2-7.16,8.56-13.18a2.17,2.17,0,0,1,.85-1.84,6.1,6.1,0,0,0,1.47-1.61c-.92.11-1.63.59-2.62.39A5.36,5.36,0,0,0,35,13.59l-2.15.8a1.36,1.36,0,0,1-1.47-.25,4.82,4.82,0,0,0-5.59-.6A5,5,0,0,0,23,18.39c0,1.07,0,1.1-1.11.94a15,15,0,0,1-9-4.63c-.59-.62-.77-.57-1,.28a5.14,5.14,0,0,0,1.23,5.08C13.27,20.29,13.6,20.43,13.68,20.89Z"/></g></g></svg>