<svg xmlns="http://www.w3.org/2000/svg" viewBox="0 0 42.03 42.49"><defs><style>.cls-1{fill:#1c3180;}</style></defs><g id="Capa_2" data-name="Capa 2"><g id="Capa_1-2" data-name="Capa 1"><path class="cls-1" d="M22.52,42.24c-4.71,0-7.77-.7-10.65-2.12A2.41,2.41,0,0,0,10,39.94C7,40.77,4,41.57,1,42.37c-1,.26-1.1.17-.83-.84.81-3,1.63-6,2.46-9a2.1,2.1,0,0,0-.14-1.61A21,21,0,0,1,6.13,6.24,19.58,19.58,0,0,1,19.87,0c8.66-.31,15.2,3.4,19.53,10.91A21.12,21.12,0,0,1,37.16,34.6C32.92,39.6,27.52,42.11,22.52,42.24ZM5.15,37.35c2-.51,3.77-1,5.53-1.46a2.05,2.05,0,0,1,1.74.26,16.15,16.15,0,0,0,10.63,2.2,17.37,17.37,0,1,0-6.71-34,17.42,17.42,0,0,0-10,25.89A2,2,0,0,1,6.6,32C6.1,33.71,5.66,35.45,5.15,37.35Z"/><path class="cls-1" d="M26.45,31.26a14.48,14.48,0,0,1-6.81-2.33,22.25,22.25,0,0,1-8.78-10,6,6,0,0,1,1.07-6.76,2.4,2.4,0,0,1,4.24.67c.37.93.71,1.87,1.14,2.77a2,2,0,0,1-.26,2.29c-1.37,1.81-1.33,1.82.05,3.64A14.22,14.22,0,0,0,22.7,26a1.2,1.2,0,0,0,1.75-.39c.33-.48.76-.89,1.09-1.38a1.14,1.14,0,0,1,1.65-.45L31,25.59a1.19,1.19,0,0,1,.69,1.29,4.61,4.61,0,0,1-4.36,4.38Z"/></g></g></svg>