<svg xmlns="http://www.w3.org/2000/svg" viewBox="0 0 45.88 46.21"><g id="Capa_2" data-name="Capa 2"><g id="Capa_1-2" data-name="Capa 1"><path d="M22.94,46.2C10.37,46.37,0,35.71,0,23.14A23.23,23.23,0,0,1,23,0,23.21,23.21,0,0,1,45.88,23.23C45.83,35.79,35.46,46.38,22.94,46.2Zm0-13c3.19-.13,6.34-.22,9.48-.41,2.84-.17,4-1.12,4.34-3.8a43.21,43.21,0,0,0,0-11.64c-.21-1.65-.86-3-2.6-3.49a8.88,8.88,0,0,0-1.84-.33,132.19,132.19,0,0,0-18.88,0c-2.79.2-3.87,1.13-4.25,3.8a39.62,39.62,0,0,0,0,11.81c.37,2.4,1.26,3.18,3.68,3.53C16.22,33.12,19.6,32.88,22.9,33.16Z"/><path d="M20.38,18.89a5.43,5.43,0,0,1,.54.27c2,1.16,4,2.34,6,3.49.58.33.71.54,0,.93-2,1.16-4.06,2.36-6.09,3.53-.72.42-.84.34-.84-.52q0-3.49,0-7C20,19.34,19.9,19,20.38,18.89Z"/></g></g></svg>